<svg xmlns="http://www.w3.org/2000/svg" width="38.355" height="43.509"><svg transform="translate(-.389 -.116)"><defs><clipPath id="a"><path fill="none" d="M0 0h299.991v201.836H0Z"/></clipPath></defs><g fill="none" stroke-miterlimit="10" clip-path="url(#a)" font-family="none" font-size="none" font-weight="none" style="mix-blend-mode:normal" text-anchor="none" transform="translate(-25.426 -71.077)"><path fill="#172ea0" d="M60.012 71.203c1.357 0 2.81-.027 4.158.006-.404 1.657-1.234 3.723-1.835 5.352l-3.286 8.802q-5.183 14.28-10.535 28.5c-.226.367-.293.645-.769.72-1.028.16-3.793.21-4.69-.185l-.325-.389c-.07-.733-2.963-7.408-3.384-8.447l-9.56-23.797c-1.15-2.897-2.572-5.988-3.607-8.88l-.364-.905.071-.392c.65-.313 3.506-.225 4.347-.03.238.054.296.296.39.5l.016.182c3.308 7.87 6.263 16.075 9.54 23.977 1.823 4.395 3.491 9.528 5.481 13.809.647-1.143 1-2.393 1.447-3.623 1.479-4.069 2.839-8.238 4.413-12.268l.051-.107c1.4-4.364 3.461-9.25 4.951-13.66.574-1.696 2.78-7.87 3.49-9.165"/><path fill="#172ea0" d="m25.815 71.98.071-.392c.65-.313 3.506-.225 4.347-.03.238.054.296.296.39.5l.016.182c-1.048.829-3.453-.249-4.46.646z"/><path fill="#0b1d97" d="M25.815 71.98c1.5.16 3.277.096 4.808.077l.016.183c-1.048.829-3.453-.249-4.46.646zm16.915 42.03c.587-.533 5.121-.526 5.784-.148-.226.368-.293.646-.769.72-1.028.162-3.793.211-4.69-.184zm8.841-19.982.318.135c.176.607.393 2.752.045 3.254-.064-.537-.31-2.887-.414-3.282Z"/></g></svg></svg>