<svg xmlns="http://www.w3.org/2000/svg" width="275.791" height="90.255"><svg transform="translate(.086 .148)"><defs><clipPath id="a"><path fill="none" d="M0 0h299.991v201.836H0z"/></clipPath></defs><g fill="none" stroke-miterlimit="10" clip-path="url(#a)" font-family="none" font-size="none" font-weight="none" style="mix-blend-mode:normal" text-anchor="none" transform="translate(-13.723 -47.874)"><path fill="#172ea0" d="M13.637 48.57c.065-.256.129-.748.289-.749 11.54-.054 35.247-.022 45.42-.022l158.258.002h49.4l14.633-.018c1.823-.007 5.885-.14 7.58.027.17.498.145.597.14 1.137.16 12.338-.005 25.09-.005 37.475l.018 51.56-275.601-.011-.01-67.99.009-14.608c0-1.063.092-6.01-.131-6.803z"/><path fill="#0b1d97" d="M13.637 48.57c.065-.256.129-.748.289-.749 11.54-.054 35.247-.022 45.42-.022l158.258.002h49.4l14.633-.018c1.823-.007 5.885-.14 7.58.027.17.498.145.597.14 1.137-4.232-.117-8.809.066-13.04.088l-23.341-.005-225.892.002c-1.771-.015-12.82.022-13.447-.462"/><path fill="#fff" d="m18.48 51.836 266.322.016.01 82.158-266.35.008c-.159-11.04-.03-22.425-.031-33.49z"/><path fill="#172ea0" d="M256.025 71.192c1.834-.015 3.73-.058 5.558.017 1.803 4.105 3.567 9.181 5.178 13.445.998 2.64 2.96 7.26 3.73 9.812.243.668.5 1.433.766 2.083a889 889 0 0 1 5.74 15.04c.342.806 1.014 1.994.72 2.754-.25.04-.374.072-.63.073-1.31.06-2.294.095-3.602.039-.43-.804-1.206-3.089-1.572-4.057l-3.23-8.576c-6.183.145-13.65.18-19.793-.025-1.204 3.318-3.398 9.634-4.82 12.64-1.5.08-2.848.015-4.345-.052 2.263-6.559 5.055-13.41 7.476-19.951l.277-.715c1.913-4.958 3.691-10.005 5.665-14.936l.817-2.187c.614-1.633 1.371-3.852 2.065-5.404"/><path fill="#203b9e" d="M276.998 111.59c.34.805 1.013 1.993.719 2.753-.25.04-.374.072-.63.073-.004-.132.006-.084-.026-.197a11 11 0 0 1-.18-.65c-.182-.74-.3-1.282.117-1.98"/><path fill="#0b1d97" d="M271.257 96.549c-.302.204-.683.071-.982-.073-.521-.631-.316-1.455.216-2.01.243.668.5 1.433.766 2.083M253.96 76.596c.476.574.5 1.787-.013 2.399-.375-.062-.451-.076-.804-.212zM247.478 93.72c.44.748.267 1.595.136 2.461-.29-.457-.227-1.151-.413-1.747z"/><path fill="#fff" d="M258.655 75.814c.643.467 7.333 19.262 8.478 21.836-2.44.095-5.207.046-7.673.052q-4.451.021-8.901-.042c2.406-6.97 5.41-14.918 8.096-21.846"/><path fill="#172ea0" d="m229.619 71.109 1.26.02c-.027 14.33.194 29.002-.028 43.293-1.124.073-2.236.006-3.36-.038-2.55-3.228-5.734-7.85-8.194-11.273l-10.49-14.45-4.587-6.372c-.9-1.247-2.026-2.929-3.07-4.016-.178 11.94 0 24.168-.034 36.143l-2.3.058-1.608-.043c-.056-1.45-.046-2.959-.037-4.412.082-12.916-.151-25.87.015-38.781 1.08-.062 2.477-.039 3.578-.052 1.21 1.222 4.538 6.048 5.795 7.785l13.115 18.18c1.727 2.403 5.514 7.927 7.277 9.809-.104-11.624-.214-24.26.016-35.833zM120.162 71.265l.186-.01c.765-.046 3.248-.206 3.762.253-.526 2.301-2.68 7.814-3.571 10.216l-6.254 16.931-3.61 9.888c-.692 1.916-1.44 4.4-2.43 6.113l-5.712-.077L93.9 94.147c-1.923-4.56-3.846-9.355-5.848-13.852-.164-.392-.307-.796-.454-1.195-.952-1.875-2.078-4.77-2.908-6.76l-.105-.281-.01-.42c.536-.37 3.86-.329 4.456-.006l.214.415.005.172c.982 1.67 3.086 7.281 3.92 9.267l7.956 19.174c1.321 3.195 2.764 7.017 4.232 10.084 1.334-2.708 2.52-6.759 3.647-9.662 2.525-6.507 4.783-13.438 7.34-19.901l.203-.426c.395-1.507 2.97-8.373 3.614-9.49"/><path fill="#203b9e" d="m84.585 72.059-.01-.42c.536-.37 3.86-.329 4.456-.006l.214.415c-1.633-.01-2.95.194-4.66.01"/><path fill="#0b1d97" d="M84.585 72.059c1.71.183 3.027-.021 4.66-.01l.005.171-.158.353c-1.236.274-3.182.158-4.402-.233zM87.598 79.1c.607-.776-.073-1.52.728-1.754.603.615.079 2.245-.274 2.95-.164-.393-.307-.797-.454-1.196M116.548 80.756l.31.2c.116.729.011 1.861-.246 2.568l-.11.013c-.029-.705.028-1.751-.157-2.355z"/><path fill="#172ea0" d="M60.012 71.203c1.357 0 2.81-.027 4.158.006-.404 1.657-1.234 3.723-1.835 5.352l-3.286 8.802q-5.183 14.28-10.535 28.5c-.226.367-.293.645-.769.72-1.028.16-3.793.21-4.69-.185l-.325-.389c-.07-.733-2.963-7.408-3.384-8.447l-9.56-23.797c-1.15-2.897-2.572-5.988-3.607-8.88l-.364-.905.071-.392c.65-.313 3.506-.225 4.347-.03.238.054.296.296.39.5l.016.182c3.308 7.87 6.263 16.075 9.54 23.977 1.823 4.395 3.491 9.528 5.481 13.809.647-1.143 1-2.393 1.447-3.623 1.479-4.069 2.839-8.238 4.413-12.268l.051-.107c1.4-4.364 3.461-9.25 4.951-13.66.574-1.696 2.78-7.87 3.49-9.165"/><path fill="#172ea0" d="m25.815 71.98.071-.392c.65-.313 3.506-.225 4.347-.03.238.054.296.296.39.5l.016.182c-1.048.829-3.453-.249-4.46.646z"/><path fill="#0b1d97" d="M25.815 71.98c1.5.16 3.277.096 4.808.077l.016.183c-1.048.829-3.453-.249-4.46.646zM42.73 114.01c.587-.533 5.121-.526 5.784-.148-.226.368-.293.646-.769.72-1.028.162-3.793.211-4.69-.184zM51.571 94.028l.318.135c.176.607.393 2.752.045 3.254-.064-.537-.31-2.887-.414-3.282z"/><path fill="#172ea0" d="M159.478 90.973c9.692-.147 19.621-.02 29.336-.018q.01 2.087-.047 4.172c-4.156.21-9.409.026-13.64.058-3.13.024-8.596.142-11.54-.141-.042 5.127-.19 10.646-.056 15.73 1.224.03 2.49.024 3.718.034l21.58-.08c.035 1.246-.006 2.626-.02 3.884-3.33.123-7.076.001-10.444-.01a1243 1243 0 0 0-18.927.03c.004-7.685-.189-16.043.04-23.659zM72.126 71.375c1.3-.052 2.74-.02 4.051-.016-.003 4.74.149 42.615-.188 43.225h-3.992c-.104-3.65-.275-42.263.13-43.209M139.974 71.49c.74-.006 3.578-.097 4.07.127.138 1.052.089 3.565.09 4.672l.005 8.466q.116 14.895-.166 29.788l-4.08-.002.009-29.19-.013-8.788c-.002-1.392-.06-3.754.085-5.074z"/><path fill="#0b1d97" d="M139.974 71.49c.74-.006 3.578-.097 4.07.127l-.117.903c-.295.191-2.846-.015-3.645.044l-.162.013z"/><path fill="#172ea0" d="M161.1 71.249c6.918-.168 13.946.113 20.876-.02 2.197-.043 4.654-.08 6.84.064.046 1.253.011 2.647 0 3.911l-1.28.036-28.057-.02-.015-3.873z"/><path fill="#0b1d97" d="m285.018 52.075.62.013c.404.59.046 44.186.102 48.995.11 9.515-.034 23.258.073 33.105-.286-.023-.55-.06-.835-.098-.212-4.657.003-11.252.001-16.023l-.009-32.937-.009-22.28c0-2.453-.168-8.527.056-10.775z"/></g></svg></svg>